<svg width="78" height="29" viewBox="0 0 78 29" fill="none" xmlns="http://www.w3.org/2000/svg">
<g filter="url(#filter0_iii_2_4152)">
<path d="M0.0195942 0C0.257252 2.54545 0.254724 5.09091 0.0195942 7.63636H2.8146C2.52638 5.11515 2.582 2.56485 2.8323 0H0.0195942ZM11.503 0C11.6674 3.27879 11.8507 6.58182 11.5283 9.98182H14.3284C14.0123 6.67879 14.0945 3.34424 14.3473 0H11.503ZM18.658 0C18.9488 1.9097 18.8856 3.81091 18.6327 5.69697H21.4202C21.2685 3.79818 21.2685 1.89879 21.4202 0H18.658ZM26.0216 2.2097C26.0216 2.2097 23.4049 2.68303 22.6401 3.65576C22.4378 3.93515 22.2671 4.40242 22.4504 4.69697C22.6464 4.98788 23.1268 5 23.4491 4.89697C24.6058 4.53333 26.0216 2.2097 26.0216 2.2097ZM7.68532 4.96364C7.68532 4.96364 8.4438 7.55152 9.46143 8.18182C9.75218 8.3697 10.2326 8.46061 10.4917 8.22424C10.7509 7.98788 10.7066 7.49697 10.5802 7.18182C10.0872 6.04848 7.68532 4.96364 7.68532 4.96364ZM24.2076 5.38182C23.9168 5.38788 23.645 5.41818 23.4175 5.49091C23.0193 5.62424 22.5263 5.98182 22.5452 6.38182C22.5516 6.78182 23.0635 7.10909 23.4807 7.21818C24.9724 7.59394 28 6.21212 28 6.21212C28 6.21212 25.7751 5.36364 24.2076 5.38182ZM18.6327 6.78788C19.0246 9.67879 19.0815 12.5515 18.6454 15.3939H21.4138C21.161 12.5212 21.1926 9.64849 21.4265 6.78788H18.6327ZM22.8929 7.93333C22.7538 7.93939 22.6211 7.98182 22.52 8.07273C22.2608 8.30909 22.3051 8.8 22.4315 9.11515C22.9245 10.2485 25.3264 11.3333 25.3264 11.3333C25.3264 11.3333 24.5679 8.74545 23.5502 8.11515C23.3859 8.01212 23.1647 7.93333 22.9498 7.93333H22.8929ZM6.77514 8.67879C5.94713 8.69091 5.30874 8.75758 5.30874 8.75758C5.30874 8.75758 7.85598 10.8545 9.39823 10.8667C9.82171 10.8606 10.4095 10.6788 10.5233 10.297C10.656 9.91515 10.2831 9.44242 9.92284 9.21212C9.28445 8.8 8.12777 8.69091 7.13542 8.67879H6.77514ZM0.037924 8.72727C0.316666 11.2788 0.285695 13.8242 0.0252828 16.3636H2.83293C2.58642 13.8 2.52195 11.2485 2.81334 8.72727H0.037924ZM11.5093 10.6667C11.7179 13.8242 11.7306 17.0121 11.5093 20.2424H14.3284C14.0123 17 14.0945 13.8182 14.3473 10.6667H11.5093ZM6.68033 12.0364C6.68033 12.0364 4.27847 13.1212 3.78546 14.2545C3.65904 14.5697 3.6148 15.0606 3.87395 15.297C4.1331 15.5333 4.61347 15.4424 4.90422 15.2545C5.92185 14.6242 6.68033 12.0364 6.68033 12.0364ZM5.06224 16.4061C4.63875 16.4182 4.11413 16.5939 3.99404 16.9515C3.86131 17.3273 4.22158 17.8061 4.56922 18.0424C5.82704 18.8909 9.17068 18.6121 9.17068 18.6121C9.17068 18.6121 6.68665 16.4545 5.1444 16.4061H5.06224ZM18.6011 16.4848C18.7781 18.697 18.8287 20.9212 18.6138 23.1515H21.3886C21.0978 20.8485 21.2811 18.6485 21.4265 16.4848H18.6011ZM0.0126414 17.4545C0.262941 20.9818 0.184564 24.497 0 28H2.85758C2.7002 24.503 2.56936 20.9879 2.83988 17.4545H0.0126414ZM4.39856 18.9576C4.15838 18.9636 3.92451 19.0364 3.80442 19.2182C3.62112 19.5091 3.79178 19.9818 3.99404 20.2606C4.75884 21.2303 7.37561 21.703 7.37561 21.703C7.37561 21.703 5.95977 19.3818 4.80309 19.0182C4.683 18.9818 4.53762 18.9576 4.39856 18.9576ZM27.1341 20.1333C27.1341 20.1333 23.7904 20.4424 22.7159 21.497C22.4252 21.7879 22.1534 22.3273 22.3619 22.6727C22.5579 23.0242 23.171 23.0909 23.5945 23.0061C25.0988 22.6909 27.1341 20.1333 27.1341 20.1333ZM11.5409 21.3333C11.7685 23.5576 11.5662 25.8121 11.4967 28H14.3536C14.2462 25.8303 13.9934 23.6121 14.3031 21.3333H11.5409ZM23.0446 24.0606C22.7159 24.0606 22.343 24.2 22.2419 24.4788C22.1218 24.8 22.3936 25.2182 22.659 25.4485C23.6324 26.2364 26.2871 26.1515 26.2871 26.1515C26.2871 26.1515 24.3846 24.1818 23.1773 24.0667C23.1331 24.0606 23.0888 24.0606 23.0446 24.0606ZM18.6201 24.2424C18.7528 25.4727 18.8287 26.7273 18.658 28H21.3633C21.1863 26.7212 21.2748 25.4667 21.4075 24.2424H18.6201Z" fill="url(#paint0_linear_2_4152)"/>
</g>
<path d="M36.5 6.38V24.66H38.5V6.38H36.5ZM33.7 13.58V15.28H37V13.58H33.7ZM32.38 6.74001V23.76H34.32V6.74001H32.38ZM23.5 18.58V20.32H24.74C27.3 20.32 29.18 20.24 31.38 19.8L31.2 18.08C29.06 18.5 27.22 18.58 24.74 18.58H23.5ZM23.5 8.56V19.4H25.58V10.26H30.28V8.56H23.5Z" fill="black"/>
<path d="M54.8024 6.38V24.66H56.8024V6.38H54.8024ZM52.0024 13.58V15.28H55.3024V13.58H52.0024ZM50.6824 6.74001V23.76H52.6224V6.74001H50.6824ZM41.8024 18.58V20.32H43.0424C45.6024 20.32 47.4824 20.24 49.6824 19.8L49.5024 18.08C47.3624 18.5 45.5224 18.58 43.0424 18.58H41.8024ZM41.8024 8.56V19.4H43.8824V10.26H48.5824V8.56H41.8024Z" fill="black"/>
<path d="M61.3249 18.16V19.84H74.2449V18.16H61.3249ZM61.1449 22.7V24.38H74.4249V22.7H61.1449ZM63.9449 18.8V24.2H66.0049V18.8H63.9449ZM69.5649 18.8V24.2H71.6249V18.8H69.5649ZM66.7049 15.56V18.54H68.8049V15.56H66.7049ZM59.5049 14.66V16.36H76.0249V14.66H59.5049ZM66.7049 6.56001V7.28001C66.7049 9.40001 64.0449 11.42 60.3849 11.88L61.1449 13.5C65.3249 12.92 68.5049 10.48 68.5049 7.28001V6.56001H66.7049ZM67.0449 6.56001V7.28001C67.0449 10.44 70.2249 12.92 74.3849 13.5L75.1449 11.88C71.5249 11.42 68.8449 9.36 68.8449 7.28001V6.56001H67.0449Z" fill="black"/>
<defs>
<filter id="filter0_iii_2_4152" x="-2" y="-1" width="31" height="29" filterUnits="userSpaceOnUse" color-interpolation-filters="sRGB">
<feFlood flood-opacity="0" result="BackgroundImageFix"/>
<feBlend mode="normal" in="SourceGraphic" in2="BackgroundImageFix" result="shape"/>
<feColorMatrix in="SourceAlpha" type="matrix" values="0 0 0 0 0 0 0 0 0 0 0 0 0 0 0 0 0 0 127 0" result="hardAlpha"/>
<feOffset dx="1" dy="-1"/>
<feGaussianBlur stdDeviation="0.5"/>
<feComposite in2="hardAlpha" operator="arithmetic" k2="-1" k3="1"/>
<feColorMatrix type="matrix" values="0 0 0 0 0 0 0 0 0 0 0 0 0 0 0 0 0 0 0.25 0"/>
<feBlend mode="normal" in2="shape" result="effect1_innerShadow_2_4152"/>
<feColorMatrix in="SourceAlpha" type="matrix" values="0 0 0 0 0 0 0 0 0 0 0 0 0 0 0 0 0 0 127 0" result="hardAlpha"/>
<feOffset/>
<feGaussianBlur stdDeviation="2"/>
<feComposite in2="hardAlpha" operator="arithmetic" k2="-1" k3="1"/>
<feColorMatrix type="matrix" values="0 0 0 0 0 0 0 0 0 0 0 0 0 0 0 0 0 0 0.25 0"/>
<feBlend mode="normal" in2="effect1_innerShadow_2_4152" result="effect2_innerShadow_2_4152"/>
<feColorMatrix in="SourceAlpha" type="matrix" values="0 0 0 0 0 0 0 0 0 0 0 0 0 0 0 0 0 0 127 0" result="hardAlpha"/>
<feOffset dx="-2" dy="-1"/>
<feGaussianBlur stdDeviation="3.5"/>
<feComposite in2="hardAlpha" operator="arithmetic" k2="-1" k3="1"/>
<feColorMatrix type="matrix" values="0 0 0 0 1 0 0 0 0 1 0 0 0 0 1 0 0 0 0.25 0"/>
<feBlend mode="normal" in2="effect2_innerShadow_2_4152" result="effect3_innerShadow_2_4152"/>
</filter>
<linearGradient id="paint0_linear_2_4152" x1="20.3477" y1="-0.222222" x2="2.56467" y2="28.2593" gradientUnits="userSpaceOnUse">
<stop stop-color="#49E759"/>
<stop offset="1" stop-color="#37DC81"/>
</linearGradient>
</defs>
</svg>
